<?xml version="1.0" encoding="utf-8"?>
<!-- Svg Vector Icons : http://www.onlinewebfonts.com/icon -->
<!DOCTYPE svg PUBLIC "-//W3C//DTD SVG 1.1//EN" "http://www.w3.org/Graphics/SVG/1.1/DTD/svg11.dtd">
<svg version="1.1" xmlns="http://www.w3.org/2000/svg" xmlns:xlink="http://www.w3.org/1999/xlink" x="0px" y="0px" viewBox="0 0 256 256" enable-background="new 0 0 256 256" xml:space="preserve">
<metadata> Svg Vector Icons : http://www.onlinewebfonts.com/icon </metadata>
<g><g><g><path fill="#000000" d="M102.1,34.1c-21.9,1.4-33.6,4.4-39.8,10.4c-3.4,3.3-8,10.3-12.3,18.8c-4.5,8.8-7.2,16.2-10.5,29.2l-0.6,2.3l-2.6-3.9c-2.8-4.3-6-7.2-9.6-8.8c-3.2-1.5-11.1-1.5-13.4-0.1c-2.7,1.6-3.5,4.6-3.3,11.5c0.2,6.2,0.8,7.7,3.5,9.5c1.2,0.8,3,0.9,12.1,1.1c5.9,0.1,10.7,0.3,10.7,0.4c0,0.1-1.2,1.4-2.6,2.9c-8.8,9-14,19.7-15.3,31.5c-0.8,8,0.8,31.7,3,42.1c1.1,5.5,3.7,12.4,5.5,15c0.9,1.3,2.6,2.6,4.1,3.3l2.5,1.2l0.3,8.2c0.3,9.5,0.8,11.1,4.4,12.7c1.9,0.8,3.5,1,11.2,1c7.6,0,9.3-0.2,11.2-1c3.5-1.6,4.1-3,4.3-10.5l0.2-6.5l5.9,0.3c3.2,0.2,11,0.6,17.2,1c14.6,0.8,65.4,0.8,80.1,0c6.2-0.4,14-0.8,17.3-1l5.9-0.3v6c0,7.3,0.7,9.1,4.2,10.9c2.2,1.1,3.1,1.2,11.3,1.2c7.6,0,9.3-0.2,11.2-1c3.5-1.6,4.1-3.2,4.4-12.7l0.3-8.2l2.5-1.2c3.1-1.4,4.6-3.5,6.7-8.7c3.1-7.6,4.6-17.6,5.8-36.9c0.7-11,0.2-17.6-1.9-24.2c-2.4-7.7-7.2-15.6-13.3-21.9c-1.5-1.5-2.6-2.8-2.6-2.9c0-0.1,4.8-0.3,10.7-0.4c11.6-0.2,12.4-0.4,14.4-3.4c1.4-2.1,1.7-12,0.4-15.2c-1.4-3.6-3.1-4.4-9-4.4c-7.5,0.1-11.8,2.6-16.5,9.8l-2.6,4l-0.6-2.3c-4.4-16.6-8.2-26.2-14.9-37c-5.3-8.7-7.8-11.6-12.8-14.5c-5.2-3-13.7-5-27.9-6.4C153.6,33.9,111.6,33.5,102.1,34.1z M158.3,49.4c15.4,1.5,26.2,4.2,28.8,6.9c1.9,2.1,9.4,17.3,12,24.5c2.4,6.6,5.5,17.9,5.1,18.5c-0.1,0.2-3.7,0.1-8.1-0.2c-34.9-2.8-71-3.4-107.4-1.7c-12.5,0.5-33.3,1.9-35.8,2.3c-1.5,0.3-1.5,0.2-1.1-1.7c0.7-4.1,4.1-14.9,6.4-20.7c3-7.4,9-19.1,10.8-21.1c2.4-2.6,13.7-5.4,28.7-6.9C111.4,48,144.4,48,158.3,49.4z M62.9,124.9c6.1,2.7,9.3,7.5,9.6,14.3c0.2,3.8,0.1,4.6-1.2,7.5c-1.7,3.7-4.9,7-8.6,8.6c-3.8,1.8-10,1.6-13.9-0.3c-10.2-5-12.5-18.5-4.6-26.7C49.2,123.4,56.4,122,62.9,124.9z M206.8,125c10,4.5,12.8,17.9,5.4,26.2c-1.2,1.4-3.4,3.1-5.1,3.9c-4,1.9-10.1,2.1-13.9,0.3c-3.3-1.5-6.7-4.8-8.3-7.9c-1.9-3.8-2.2-10.2-0.4-14c1.7-3.6,3.6-5.9,6.6-7.6C196.2,122.9,201.5,122.6,206.8,125z M165.2,157.3c3.9,3.1,3,6.6-3.3,13.1c-5.1,5.2-3.1,4.9-33.9,4.9c-30.8,0-28.8,0.3-33.9-4.9c-5.4-5.6-6.6-8.3-4.9-11.4c1.5-2.7,0.6-2.6,39-2.6C161.4,156.3,164.2,156.4,165.2,157.3z"/></g></g></g>
</svg>